# File created by Blade
# Date/Time:  Tue Apr 07 20:29:34 2015
# Frame Rate: 120.000 fps
#------------------------------------------------------
:FULLY-SPECIFIED
:DEGREES
2755
root 3.117991 33.708742 -3.446004 17.197564 -32.532875 -32.344900
Spine 2.755288 20.888411 18.489765
Head 11.703896 -0.112789 6.384294
LeftShoulder -25.904937 43.171911 13.450519
LeftArm 52.211150 -50.018670 -73.635353
LeftForeArm 3.610529 -0.000000 5.366095
LeftHand 9.632342 -0.000000 1.426477
LeftHandThumb1 -26.253704 0.000000 33.147579
RightShoulder 2.600690 5.613136 -20.055330
RightArm 18.514251 -0.283439 57.140594
RightForeArm -6.005499 -0.000000 19.261986
RightHand 3.507149 -0.000000 11.438109
RightHandThumb1 -24.326973 -0.000000 -32.862282
LeftUpLeg -2.952118 11.791789 18.352480
LeftLeg 13.366941 -0.000000 -0.000000
LeftFoot -15.978027 21.389815 -14.886138
LeftToeBase -7.078893 -0.000000 0.000000
RightUpLeg -79.339686 -48.231007 -0.622835
RightLeg 81.546126 -0.000000 -0.000000
RightFoot 39.390539 -28.268734 4.965176
RightToeBase 34.548989 -0.000000 -0.000000
2756
root 3.118504 33.709086 -3.470444 17.147496 -32.453243 -32.341898
Spine 2.793172 20.709541 18.462620
Head 11.740997 -0.097417 6.548138
LeftShoulder -25.807777 43.147875 13.552445
LeftArm 52.153985 -50.007720 -73.555088
LeftForeArm 3.479973 0.000000 5.269114
LeftHand 9.573310 -0.000000 1.381259
LeftHandThumb1 -26.253704 0.000000 33.147579
RightShoulder 2.480588 5.618215 -20.008917
RightArm 18.413914 -0.078480 56.926779
RightForeArm -6.033697 0.000000 19.281483
RightHand 3.663158 -0.000000 11.364620
RightHandThumb1 -24.326973 -0.000000 -32.862282
LeftUpLeg -2.994050 11.884816 18.425968
LeftLeg 13.439335 -0.000000 -0.000000
LeftFoot -16.065034 21.104979 -15.087202
LeftToeBase -6.934517 -0.000000 0.000000
RightUpLeg -79.631514 -48.271324 -0.770685
RightLeg 80.842532 -0.000000 -0.000000
RightFoot 39.412343 -28.172766 4.671102
RightToeBase 34.537654 -0.000000 -0.000000
2757
root 3.118602 33.711310 -3.494392 17.075235 -32.367021 -32.312120
Spine 2.828673 20.518071 18.415422
Head 11.794575 -0.097177 6.690084
LeftShoulder -25.733402 43.150353 13.608558
LeftArm 52.187501 -50.013819 -73.528133
LeftForeArm 3.439261 -0.000000 5.148634
LeftHand 9.628930 -0.000000 1.313376
LeftHandThumb1 -26.253704 0.000000 33.147579
RightShoulder 2.426935 5.627533 -19.925333
RightArm 18.265786 0.085364 56.648164
RightForeArm -6.015282 -0.000000 19.288566
RightHand 3.720821 -0.000000 11.188090
RightHandThumb1 -24.326973 -0.000000 -32.862282
LeftUpLeg -3.013202 11.960017 18.479434
LeftLeg 13.482049 -0.000000 -0.000000
LeftFoot -16.188924 20.774281 -15.396118
LeftToeBase -6.611741 -0.000000 0.000000
RightUpLeg -79.864105 -48.309933 -0.993407
RightLeg 80.233400 -0.000000 -0.000000
RightFoot 39.467921 -27.864906 4.392564
RightToeBase 34.487419 -0.000000 -0.000000
2758
root 3.117069 33.714558 -3.516313 17.010879 -32.278878 -32.305465
Spine 2.854148 20.347704 18.381927
Head 11.868397 -0.125889 6.849411
LeftShoulder -25.661171 43.137832 13.688532
LeftArm 52.236814 -49.982964 -73.517574
LeftForeArm 3.454478 -0.000000 5.033350
LeftHand 9.633041 -0.000000 1.299957
LeftHandThumb1 -26.253704 0.000000 33.147579
RightShoulder 2.313628 5.651448 -19.903925
RightArm 18.092525 0.335833 56.517513
RightForeArm -6.010374 0.000000 19.362105
RightHand 3.521369 -0.000000 11.392207
RightHandThumb1 -24.326973 -0.000000 -32.862282
LeftUpLeg -3.020952 12.051079 18.556788
LeftLeg 13.528900 -0.000000 -0.000000
LeftFoot -16.318942 20.435510 -15.716386
LeftToeBase -6.137040 -0.000000 0.000000
RightUpLeg -80.072095 -48.354688 -1.196954
RightLeg 79.705206 -0.000000 -0.000000
RightFoot 39.443235 -27.584598 4.295623
RightToeBase 34.507453 -0.000000 -0.000000
2759
root 3.117394 33.718745 -3.535422 16.940203 -32.202209 -32.293755
Spine 2.882430 20.181949 18.367122
Head 11.965421 -0.168598 6.943959
LeftShoulder -25.611671 43.147598 13.701528
LeftArm 52.245776 -49.915434 -73.425089
LeftForeArm 3.412177 -0.000000 4.965256
LeftHand 9.606905 -0.000000 1.279710
LeftHandThumb1 -26.253704 0.000000 33.147579
RightShoulder 2.245954 5.634313 -19.906814
RightArm 17.929591 0.722195 56.425060
RightForeArm -6.264429 -0.000000 19.407035
RightHand 3.517352 -0.000000 11.526206
RightHandThumb1 -24.326973 -0.000000 -32.862282
LeftUpLeg -3.012080 12.115828 18.623134
LeftLeg 13.553649 -0.000000 -0.000000
LeftFoot -16.465498 20.150957 -16.099787
LeftToeBase -5.883254 -0.000000 0.000000
RightUpLeg -80.276633 -48.400464 -1.384900
RightLeg 79.216867 -0.000000 -0.000000
RightFoot 39.449737 -27.555428 4.372085
RightToeBase 34.500966 -0.000000 -0.000000
2760
root 3.118817 33.725328 -3.553954 16.884783 -32.123352 -32.291877
Spine 2.898595 20.029111 18.363662
Head 12.065465 -0.250658 7.010016
LeftShoulder -25.542202 43.142206 13.719505
LeftArm 52.169579 -49.816734 -73.278552
LeftForeArm 3.427066 -0.000000 4.954180
LeftHand 9.672010 -0.000000 1.207404
LeftHandThumb1 -26.253704 0.000000 33.147579
RightShoulder 2.158117 5.634077 -19.852912
RightArm 17.810839 0.757518 56.137473
RightForeArm -6.164345 -0.000000 19.360881
RightHand 3.807536 -0.000000 10.944805
RightHandThumb1 -24.326973 -0.000000 -32.862282
LeftUpLeg -3.028890 12.155326 18.697279
LeftLeg 13.620126 -0.000000 -0.000000
LeftFoot -16.610787 19.829480 -16.490579
LeftToeBase -5.366427 -0.000000 0.000000
RightUpLeg -80.492020 -48.446917 -1.521577
RightLeg 78.779615 -0.000000 -0.000000
RightFoot 39.474752 -27.680032 4.422152
RightToeBase 34.459394 -0.000000 -0.000000
2761
root 3.118434 33.731677 -3.572273 16.836172 -32.074910 -32.305074
Spine 2.917218 19.942596 18.359336
Head 12.163276 -0.326535 7.093341
LeftShoulder -25.447210 43.122125 13.780400
LeftArm 52.115186 -49.690776 -73.157666
LeftForeArm 3.352089 0.000000 4.950566
LeftHand 9.682545 -0.000000 1.149054
LeftHandThumb1 -26.253704 0.000000 33.147579
RightShoulder 2.061829 5.641692 -19.880495
RightArm 17.573930 1.009636 56.041860
RightForeArm -6.381269 -0.000000 19.510616
RightHand 3.451571 0.000000 11.452472
RightHandThumb1 -24.326973 -0.000000 -32.862282
LeftUpLeg -3.033320 12.220118 18.777410
LeftLeg 13.687930 -0.000000 -0.000000
LeftFoot -16.755026 19.517234 -16.883830
LeftToeBase -5.029988 -0.000000 0.000000
RightUpLeg -80.705524 -48.457454 -1.637569
RightLeg 78.409288 -0.000000 -0.000000
RightFoot 39.493881 -27.905125 4.488284
RightToeBase 34.395372 -0.000000 -0.000000
2762
root 3.117128 33.739987 -3.589671 16.794462 -32.029602 -32.367260
Spine 2.953560 19.855817 18.420248
Head 12.279706 -0.394082 7.128717
LeftShoulder -25.362642 43.129388 13.805984
LeftArm 52.077918 -49.576979 -73.077893
LeftForeArm 3.259833 -0.000000 4.998564
LeftHand 9.640712 0.000000 1.167023
LeftHandThumb1 -26.253704 0.000000 33.147579
RightShoulder 1.975784 5.656233 -19.914067
RightArm 17.377789 1.162031 55.936654
RightForeArm -6.176294 -0.000000 19.595367
RightHand 3.265221 -0.000000 11.656872
RightHandThumb1 -24.326973 -0.000000 -32.862282
LeftUpLeg -3.023961 12.274370 18.900962
LeftLeg 13.778035 -0.000000 -0.000000
LeftFoot -16.891498 19.225032 -17.242357
LeftToeBase -4.626645 -0.000000 0.000000
RightUpLeg -80.909750 -48.467710 -1.677981
RightLeg 78.111679 -0.000000 -0.000000
RightFoot 39.531883 -27.977548 4.362121
RightToeBase 34.245593 -0.000000 -0.000000
2763
root 3.115911 33.748699 -3.606244 16.798398 -31.992780 -32.457595
Spine 2.964872 19.739966 18.498676
Head 12.372507 -0.379955 7.142266
LeftShoulder -25.373165 43.113866 13.756240
LeftArm 51.994511 -49.441233 -72.952793
LeftForeArm 3.257324 -0.000000 5.065513
LeftHand 9.723183 -0.000000 1.181480
LeftHandThumb1 -26.253704 0.000000 33.147579
RightShoulder 1.964036 5.628928 -19.894604
RightArm 17.234498 1.395172 55.734705
RightForeArm -6.743920 -0.000000 19.613480
RightHand 3.722146 -0.000000 11.253486
RightHandThumb1 -24.326973 -0.000000 -32.862282
LeftUpLeg -3.027788 12.297737 19.027531
LeftLeg 13.833937 -0.000000 -0.000000
LeftFoot -16.972550 19.088225 -17.463607
LeftToeBase -4.350144 -0.000000 0.000000
RightUpLeg -81.130459 -48.456000 -1.672127
RightLeg 77.869546 -0.000000 -0.000000
RightFoot 39.557985 -27.889446 4.242195
RightToeBase 34.340161 -0.000000 -0.000000
2764
root 3.113708 33.756796 -3.621746 16.766943 -31.955401 -32.518574
Spine 2.982675 19.657595 18.542349
Head 12.456072 -0.446665 7.184857
LeftShoulder -25.300229 43.098601 13.788595
LeftArm 51.959521 -49.348159 -72.929839
LeftForeArm 3.213783 -0.000000 5.154274
LeftHand 9.672198 0.000000 1.191415
LeftHandThumb1 -26.253704 0.000000 33.147579
RightShoulder 1.910104 5.666748 -19.964860
RightArm 16.991660 1.500540 55.676129
RightForeArm -6.410992 -0.000000 19.729335
RightHand 3.359479 -0.000000 11.657555
RightHandThumb1 -24.326973 -0.000000 -32.862282
LeftUpLeg -3.008348 12.294547 19.140181
LeftLeg 13.886804 -0.000000 -0.000000
LeftFoot -17.055720 18.897066 -17.722912
LeftToeBase -4.040124 -0.000000 0.000000
RightUpLeg -81.351010 -48.468240 -1.667444
RightLeg 77.698853 -0.000000 -0.000000
RightFoot 39.649902 -27.742717 4.147506
RightToeBase 34.327789 -0.000000 -0.000000
2765
root 3.111868 33.763478 -3.638610 16.731175 -31.921380 -32.585588
Spine 3.031956 19.571303 18.601453
Head 12.477195 -0.496361 7.209516
LeftShoulder -25.269557 43.066681 13.767169
LeftArm 51.907746 -49.242597 -72.865778
LeftForeArm 3.199905 -0.000000 5.266344
LeftHand 9.763962 -0.000000 1.216232
LeftHandThumb1 -26.253704 0.000000 33.147579
RightShoulder 1.855028 5.673587 -19.998250
RightArm 16.836035 1.657512 55.535484
RightForeArm -6.644068 -0.000000 19.777544
RightHand 3.407065 -0.000000 11.674924
RightHandThumb1 -24.326973 -0.000000 -32.862282
LeftUpLeg -2.972784 12.205932 19.258122
LeftLeg 13.934289 -0.000000 -0.000000
LeftFoot -17.112989 18.738888 -17.903602
LeftToeBase -3.940065 -0.000000 0.000000
RightUpLeg -81.564282 -48.479609 -1.651515
RightLeg 77.576944 -0.000000 -0.000000
RightFoot 39.767128 -27.529766 4.042631
RightToeBase 34.259393 -0.000000 -0.000000
2766
root 3.109217 33.768808 -3.655778 16.676313 -31.900737 -32.628957
Spine 3.092669 19.484663 18.624287
Head 12.486074 -0.560906 7.253946
LeftShoulder -25.256642 43.030701 13.757530
LeftArm 51.926607 -49.171734 -72.927017
LeftForeArm 3.318513 -0.000000 5.390496
LeftHand 9.761661 -0.000000 1.385222
LeftHandThumb1 -26.253704 0.000000 33.147579
RightShoulder 1.804764 5.753169 -20.029036
RightArm 16.664173 1.712058 55.404297
RightForeArm -6.473834 0.000000 19.769325
RightHand 3.403902 -0.000000 11.547919
RightHandThumb1 -24.326973 -0.000000 -32.862282
LeftUpLeg -2.931489 12.182764 19.349875
LeftLeg 13.978693 -0.000000 -0.000000
LeftFoot -17.278750 18.599616 -18.285541
LeftToeBase -3.604184 -0.000000 0.000000
RightUpLeg -81.790042 -48.485856 -1.631275
RightLeg 77.508793 -0.000000 -0.000000
RightFoot 39.861399 -27.279888 3.939371
RightToeBase 34.253395 -0.000000 -0.000000
2767
root 3.106328 33.772094 -3.671787 16.606352 -31.910704 -32.678526
Spine 3.188343 19.423451 18.654677
Head 12.452210 -0.626234 7.280070
LeftShoulder -25.210631 42.957968 13.762575
LeftArm 51.803371 -49.096769 -72.841835
LeftForeArm 3.374208 -0.000000 5.547944
LeftHand 9.697500 -0.000000 1.347286
LeftHandThumb1 -26.253704 0.000000 33.147579
RightShoulder 1.774234 5.778508 -20.086905
RightArm 16.518404 1.770549 55.273635
RightForeArm -6.310096 -0.000000 19.782903
RightHand 3.357141 0.000000 11.850214
RightHandThumb1 -24.326973 -0.000000 -32.862282
LeftUpLeg -2.846571 12.135678 19.448204
LeftLeg 14.015767 -0.000000 -0.000000
LeftFoot -17.439712 18.441687 -18.605126
LeftToeBase -3.298046 -0.000000 0.000000
RightUpLeg -82.001966 -48.472272 -1.612675
RightLeg 77.487969 -0.000000 -0.000000
RightFoot 39.898380 -27.040050 3.845044
RightToeBase 34.278464 -0.000000 -0.000000
